<svg class="icon" viewBox="0 0 1024 1024" xmlns="http://www.w3.org/2000/svg" width="200" height="200"><path d="M975.238 1024H48.762A48.762 48.762 0 0 1 0 975.238V48.762A48.762 48.762 0 0 1 48.762 0h926.476A48.762 48.762 0 0 1 1024 48.762v926.476A48.762 48.762 0 0 1 975.238 1024zm0-926.476a48.762 48.762 0 0 0-48.762-48.762H97.524a48.762 48.762 0 0 0-48.762 48.762v633.905H243.81a48.762 48.762 0 0 1 48.761 48.761v195.048H731.43V780.19a48.762 48.762 0 0 1 48.761-48.761h195.048V97.524zM146.286 512a24.381 24.381 0 0 1 24.38-24.381h682.667a24.381 24.381 0 0 1 0 48.762H170.667A24.381 24.381 0 0 1 146.286 512zm707.047-219.429H170.667a24.381 24.381 0 0 1 0-48.761h682.666a24.381 24.381 0 0 1 0 48.761z"/></svg>