<?xml version="1.0" standalone="no"?><!DOCTYPE svg PUBLIC "-//W3C//DTD SVG 1.1//EN" "http://www.w3.org/Graphics/SVG/1.1/DTD/svg11.dtd"><svg t="1677932885128" class="icon" viewBox="0 0 1024 1024" version="1.1" xmlns="http://www.w3.org/2000/svg" p-id="1933" xmlns:xlink="http://www.w3.org/1999/xlink" width="200" height="200"><path d="M975.238095 1024H48.761905a48.761905 48.761905 0 0 1-48.761905-48.761905V48.761905a48.761905 48.761905 0 0 1 48.761905-48.761905h926.47619a48.761905 48.761905 0 0 1 48.761905 48.761905v926.47619a48.761905 48.761905 0 0 1-48.761905 48.761905z m0-926.47619a48.761905 48.761905 0 0 0-48.761905-48.761905H97.52381a48.761905 48.761905 0 0 0-48.761905 48.761905v633.904761h195.047619a48.761905 48.761905 0 0 1 48.761905 48.761905v195.047619h438.857142v-195.047619a48.761905 48.761905 0 0 1 48.761905-48.761905h195.047619V97.52381zM146.285714 512a24.380952 24.380952 0 0 1 24.380953-24.380952h682.666666a24.380952 24.380952 0 0 1 0 48.761904H170.666667a24.380952 24.380952 0 0 1-24.380953-24.380952z m707.047619-219.428571H170.666667a24.380952 24.380952 0 0 1 0-48.761905h682.666666a24.380952 24.380952 0 0 1 0 48.761905z" fill="#FFFFFF" p-id="1934"></path></svg>