<?xml version="1.0" standalone="no"?><!DOCTYPE svg PUBLIC "-//W3C//DTD SVG 1.1//EN" "http://www.w3.org/Graphics/SVG/1.1/DTD/svg11.dtd"><svg t="1677933178045" class="icon" viewBox="0 0 1024 1024" version="1.1" xmlns="http://www.w3.org/2000/svg" p-id="4418" xmlns:xlink="http://www.w3.org/1999/xlink" width="200" height="200"><path d="M284.248368 940.222945c-15.990183 0-31.836079-4.992711-45.585221-15.048741-25.577538-18.525935-37.118386-49.169863-30.280654-79.95603l47.070039-210.996528c0.215918-1.302669-0.217964-2.677992-1.303692-3.617387L92.140025 487.550145c-23.591301-20.837584-32.274054-52.458769-22.541389-82.414011 9.731642-30.029944 35.31225-50.507324 66.713424-53.472865l215.159338-20.443611c1.445932-0.145309 2.568499-0.975211 3.109828-2.279926l85.925998-198.334137c12.552897-28.942169 39.942711-46.885843 71.453379-46.885843l0.073678 0c31.546483 0 58.897412 18.014282 71.417563 46.923706l85.961814 198.296275c8.103562 18.739806-0.508583 40.59251-19.284205 48.699142-18.778692 8.17417-40.630373-0.508583-48.732911-19.24839L515.432681 160.055322c-0.360204-0.86674-0.975211-2.243087-3.473101-2.243087-2.459005 0-3.109828 1.37737-3.399423 2.278903L422.598342 358.391507c-11.287067 26.047236-35.889395 43.88551-64.10911 46.599318l-215.19413 20.439518c-0.904603 0.073678-2.459005 0.218988-3.255137 2.569522-0.724501 2.388397 0.434905 3.399423 1.158383 3.979638l162.079422 143.087882c21.202904 18.742876 30.573319 47.613414 24.460088 75.289754l-47.107901 210.996528c-0.145309 0.904603-0.505513 2.424212 1.51961 3.869121 2.02717 1.484817 3.328815 0.689708 4.126994 0.184195l186.105628-109.913319c24.527626-14.399965 54.848189-14.399965 79.231529 0l186.103582 109.913319c0.799202 0.505513 2.065032 1.300622 4.126994-0.184195 2.025123-1.444908 1.661849-2.964518 1.51961-3.869121l-47.070039-210.960713c-6.186909-27.785833 3.219321-56.656371 24.493857-75.361385l162.007791-142.979412c0.724501-0.653893 1.883907-1.664919 1.159406-4.053316-0.831948-2.350534-2.350534-2.494821-3.255137-2.569522l-102.966093-9.80225c-20.333094-1.883907-35.274388-20.044522-33.322943-40.376593 1.918699-20.333094 19.682271-35.239596 40.411385-33.358759l102.860692 9.770528c31.44006 2.964518 56.94392 23.442922 66.713424 53.472865 9.732665 30.026874 1.084705 61.576427-22.61302 82.414011L769.772366 630.603235c-1.011027 0.939395-1.518586 2.314719-1.156336 3.687996l46.995337 210.92592c6.838755 30.786167-4.703115 61.430094-30.280654 79.95603-25.505907 18.594497-58.175981 20.114107-85.310991 4.052293L513.915118 819.276339c-1.156336-0.688685-2.674922-0.688685-3.835352 0L323.975161 929.226496C311.45501 936.569742 297.853224 940.222945 284.248368 940.222945" fill="#D4D4D4" p-id="4419"></path></svg>